# 3ds Max Wavefront OBJ Exporter v0.97b - (c)2007 guruware
# File Created: 01.08.2019 16:59:10

#
# object Box004
#

v  171.6618 0.0000 -77.8038
v  3.6386 0.0000 -77.8038
v  3.6386 0.0000 -82.4464
v  171.6618 0.0000 -82.4463
v  171.6617 133.0328 -77.8038
v  171.6617 133.0328 -82.4463
v  3.6386 133.0328 -82.4464
v  3.6386 133.0328 -77.8038
v  -25.4363 0.0000 -82.4464
v  -25.4363 0.0000 -77.8038
v  -25.4363 124.0378 -77.8038
v  -25.4363 124.0378 -82.4464
v  -22.7469 132.3536 -20.1809
v  -22.7469 76.0883 -20.1809
v  -22.7469 76.0883 -14.0628
v  -22.7469 132.3536 -14.0628
v  82.9300 76.0883 -20.1809
v  82.9300 76.0883 -14.0628
v  82.2663 87.1101 -20.1809
v  82.2663 87.1101 -14.0628
v  50.9764 98.9483 -20.1809
v  50.9764 98.9483 -14.0628
v  27.4152 102.3825 -20.1809
v  27.4152 102.3825 -14.0628
v  8.5282 119.2425 -20.1809
v  8.5282 119.2425 -14.0628
v  -26.4677 -0.0192 114.2113
v  -26.4677 -0.0192 100.2010
v  -21.8252 -0.0192 100.2010
v  -21.8252 -0.0192 114.2113
v  -26.4677 52.6089 114.2113
v  -21.8252 52.6089 114.2113
v  -21.8252 53.9215 100.2010
v  -26.4677 53.9215 100.2010
v  -21.8252 -0.0191 -82.8867
v  -26.4677 -0.0191 -82.8867
v  -26.4677 124.5741 -81.2348
v  -21.8252 124.5741 -81.2348
v  -26.4677 -0.0191 -74.3593
v  -26.4677 134.4547 -74.3593
v  -26.4677 -0.0191 -13.4012
v  -26.4677 -0.0191 -13.8870
v  -21.8252 -0.0191 -13.8870
v  -21.8252 -0.0191 -13.4012
v  -21.8252 103.9141 -13.4012
v  -21.8252 134.4547 -13.8870
v  -26.4677 134.4547 -13.8870
v  -26.4677 103.9141 -13.4012
v  -21.8252 -0.0197 -18.5927
v  -21.8252 21.6255 -22.1712
v  -21.8252 27.2172 -29.5853
v  -21.8252 27.5496 -40.6249
v  -21.8252 41.7423 -47.9184
v  -21.8252 47.4781 -55.1116
v  -21.8252 39.3874 -66.0224
v  -21.8252 -0.0196 -69.6380
v  -21.8252 -0.0191 -74.3593
v  -21.8252 134.4547 -74.3593
v  -26.4677 -0.0192 28.7914
v  -26.4677 -0.0192 29.1939
v  -26.4677 90.0236 29.1939
v  -26.4677 103.9141 27.0817
v  -21.8252 -0.0192 28.7914
v  -21.8252 -0.0192 29.1939
v  -21.8252 90.0236 29.1939
v  -21.8252 103.9141 27.0817
v  -26.4677 -0.0192 47.1323
v  -26.4677 87.2075 47.1323
v  -21.8252 -0.0192 47.1323
v  -21.8252 87.2075 47.1323
v  -26.4677 -0.0192 56.4371
v  -26.4677 83.5396 56.4371
v  -26.4677 -0.0192 71.3149
v  -21.8252 -0.0192 56.4371
v  -21.8252 -0.0192 71.3149
v  -21.8252 85.0006 71.3149
v  -21.8252 83.5396 56.4371
v  -26.4677 85.0006 71.3149
v  -26.4677 -0.0192 85.4877
v  -26.4677 62.3993 85.4877
v  -21.8252 -0.0192 85.4877
v  -21.8252 62.3993 85.4877
v  -26.4677 -0.0197 -18.5927
v  -26.4677 -0.0196 -69.6380
v  -26.4677 39.3874 -66.0224
v  -26.4677 47.4781 -55.1116
v  -26.4677 41.7423 -47.9184
v  -26.4677 27.5496 -40.6249
v  -26.4677 27.2172 -29.5853
v  -26.4677 21.6255 -22.1711
v  -23.2552 72.6018 112.5143
v  -23.2552 72.6018 -79.9794
v  170.9066 72.6018 -79.9794
v  170.9065 72.6018 112.5143
v  -23.2552 77.1389 112.5143
v  170.9065 77.1389 112.5143
v  170.9066 77.1389 -79.9794
v  -23.2552 77.1389 -79.9794
v  -24.4245 0.0000 110.1220
v  172.6735 0.0000 110.1220
v  172.6735 0.0000 114.7646
v  -24.4245 0.0000 114.7646
v  4.6676 110.0923 110.1220
v  4.6676 110.0923 114.7645
v  59.4538 98.8806 114.7646
v  59.4538 98.8806 110.1220
v  -24.4245 96.8567 114.7646
v  -24.4245 96.8567 110.1220
v  172.6735 104.7118 114.7646
v  119.4280 114.9433 114.7646
v  98.7434 109.8187 114.7645
v  172.6735 104.7118 110.1220
v  98.7434 109.8187 110.1220
v  119.4280 114.9432 110.1220
v  173.7050 0.0000 -81.8931
v  173.7049 0.0000 -37.0526
v  169.0624 0.0000 -37.0526
v  169.0624 0.0000 -81.8931
v  173.7050 132.9471 -81.8931
v  169.0624 132.9471 -81.8931
v  169.0624 132.9471 -35.2195
v  173.7049 132.9471 -35.2195
v  169.0624 0.0000 115.2049
v  173.7049 0.0000 115.2049
v  173.7049 132.9471 115.2049
v  169.0624 132.9471 115.2049
v  173.7049 0.0000 15.9235
v  173.7049 132.9471 39.6287
v  173.7049 0.0000 -11.9229
v  169.0624 0.0000 -11.9229
v  169.0624 119.6078 0.2853
v  173.7049 119.6078 0.2853
v  169.0624 0.0000 15.9235
v  169.0624 132.9471 39.6287
# 134 vertices

vn 0.0000 -1.0000 -0.0000
vn 0.0000 1.0000 -0.0000
vn -0.1495 0.9888 -0.0000
vn 1.0000 0.0000 0.0000
vn 0.0000 0.0000 -1.0000
vn -1.0000 0.0000 -0.0000
vn -0.0000 0.0000 1.0000
vn -0.2956 0.9553 -0.0000
vn 0.9982 0.0601 0.0000
vn 0.3539 0.9353 0.0000
vn 0.3539 0.9353 -0.0000
vn 0.1442 0.9895 -0.0000
vn 0.6659 0.7460 -0.0000
vn 0.6659 0.7460 0.0000
vn 0.3866 0.9222 0.0000
vn 0.0000 -0.0000 -1.0000
vn -0.0000 -0.0000 1.0000
vn -0.0000 0.9874 0.1580
vn 1.0000 0.0000 -0.0000
vn 0.0000 0.0078 -1.0000
vn -1.0000 0.0000 0.0000
vn -0.0000 -1.0000 -0.0000
vn -0.0000 0.0093 1.0000
vn 1.0000 -0.0000 0.0000
vn 1.0000 -0.0000 -0.0000
vn 0.0000 0.0887 0.9961
vn -0.0000 0.9659 0.2590
vn 0.0000 0.9862 -0.1654
vn -0.0000 0.3446 0.9387
vn -1.0000 -0.0000 0.0000
vn -0.0000 -1.0000 0.0002
vn 0.0000 1.0000 0.0000
vn -0.0000 0.8295 0.5585
vn -0.0000 0.7127 0.7015
vn -1.0000 -0.0000 -0.0000
vn 0.0000 0.3773 -0.9261
vn -0.0000 -0.0536 0.9986
vn -0.0000 -0.6197 0.7849
vn 0.0000 -0.5918 -0.8061
vn 0.0000 -0.2881 -0.9576
vn 0.0000 -0.9987 -0.0514
vn -0.0000 -0.6132 -0.7899
vn 0.0000 -1.0000 -0.0002
vn -0.0000 -0.0963 -0.9953
vn 0.2005 0.9797 0.0000
vn -0.0348 0.9994 -0.0000
vn 0.0000 0.0000 1.0000
vn -0.4141 0.9102 -0.0000
vn -0.2544 0.9671 -0.0000
vn -0.0265 0.9996 -0.0000
vn 0.1887 0.9820 -0.0000
vn 0.1887 0.9820 0.0000
vn -0.0000 0.9596 0.2814
vn -0.0000 0.9997 0.0228
vn 0.0000 0.9658 -0.2595
# 55 vertex normals

vt 1.0000 0.0000 0.0000
vt 1.0000 0.8525 0.0000
vt 0.0000 0.8525 0.0000
vt 0.0000 0.0000 0.0000
vt 1.0000 1.0000 0.0000
vt 0.0000 1.0000 0.0000
vt 0.8525 0.0000 0.0000
vt 0.8525 1.0000 0.0000
vt 0.1475 0.0000 0.0000
vt 0.1475 1.0000 0.0000
vt -23.5911 12.8400 0.0000
vt -23.5911 -10.1513 0.0000
vt -23.5911 -10.1513 2.5000
vt -23.5911 12.8400 2.5000
vt 33.2766 -10.1513 0.0000
vt 33.2766 -10.1513 2.5000
vt 32.9194 -5.6476 -0.0000
vt 32.9194 -5.6476 2.5000
vt 16.0815 -0.8102 -0.0000
vt 16.0815 -0.8102 2.5000
vt 3.4025 0.5931 -0.0000
vt 3.4025 0.5931 2.5000
vt -6.7611 7.4825 0.0000
vt -6.7611 7.4825 2.5000
vt 1.0000 0.0579 0.0000
vt 0.0000 0.0579 0.0000
vt 0.0579 0.0000 0.0000
vt 0.0579 1.0000 0.0000
vt 0.0433 0.0000 0.0000
vt 0.0433 1.0000 0.0000
vt 1.0000 0.6475 0.0000
vt 1.0000 0.6499 0.0000
vt 0.0000 0.6499 0.0000
vt 0.0000 0.6475 0.0000
vt 0.6475 0.0000 0.0000
vt 0.6499 0.0000 0.0000
vt 0.6673 0.0000 0.0000
vt 0.6805 0.0000 0.0000
vt 0.7195 0.0000 0.0000
vt 0.7565 0.0000 0.0000
vt 0.8180 0.0000 0.0000
vt 0.8430 0.0000 0.0000
vt 0.9043 0.0000 0.0000
vt 0.9270 0.0000 0.0000
vt 0.9567 0.0000 0.0000
vt 0.9567 1.0000 0.0000
vt 0.6499 1.0000 0.0000
vt 0.6475 1.0000 0.0000
vt 0.3525 0.0000 0.0000
vt 0.5666 0.0000 0.0000
vt 0.5687 0.0000 0.0000
vt 0.5687 1.0000 0.0000
vt 0.5666 1.0000 0.0000
vt 0.3525 1.0000 0.0000
vt 1.0000 0.4313 0.0000
vt 1.0000 0.4334 0.0000
vt 0.0000 0.4334 0.0000
vt 0.0000 0.4313 0.0000
vt 0.4313 0.0000 0.0000
vt 0.4334 0.0000 0.0000
vt 0.4334 1.0000 0.0000
vt 0.4313 1.0000 0.0000
vt 0.6180 0.0000 0.0000
vt 0.6180 1.0000 0.0000
vt 1.0000 0.3820 0.0000
vt 0.0000 0.3820 0.0000
vt 0.3820 0.0000 0.0000
vt 0.3820 1.0000 0.0000
vt 0.6868 0.0000 0.0000
vt 0.6868 1.0000 0.0000
vt 1.0000 0.2493 0.0000
vt 1.0000 0.3132 0.0000
vt 0.0000 0.3132 0.0000
vt 0.0000 0.2493 0.0000
vt 0.2493 0.0000 0.0000
vt 0.3132 0.0000 0.0000
vt 0.3132 1.0000 0.0000
vt 0.2493 1.0000 0.0000
vt 0.7507 0.0000 0.0000
vt 0.8812 0.0000 0.0000
vt 0.8812 1.0000 0.0000
vt 0.7507 1.0000 0.0000
vt 1.0000 0.1188 0.0000
vt 0.0000 0.1188 0.0000
vt 0.1188 0.0000 0.0000
vt 0.1188 1.0000 0.0000
vt 0.9421 0.0000 0.0000
vt 0.9421 1.0000 0.0000
vt 1.0000 0.6673 0.0000
vt 0.0000 0.6673 0.0000
vt 1.0000 0.9567 0.0000
vt 0.0000 0.9567 0.0000
vt 0.0730 0.0000 0.0000
vt 0.0957 0.0000 0.0000
vt 0.1570 0.0000 0.0000
vt 0.1820 0.0000 0.0000
vt 0.2435 0.0000 0.0000
vt 0.2805 0.0000 0.0000
vt 0.3195 0.0000 0.0000
vt 0.3327 0.0000 0.0000
vt 0.3501 0.0000 0.0000
vt 0.3501 1.0000 0.0000
vt 1.0000 0.9043 0.0000
vt 1.0000 0.9270 0.0000
vt 0.0000 0.9270 0.0000
vt 0.0000 0.9043 0.0000
vt 1.0000 0.8430 0.0000
vt 0.0000 0.8430 0.0000
vt 1.0000 0.8180 0.0000
vt 0.0000 0.8180 0.0000
vt 1.0000 0.7565 0.0000
vt 0.0000 0.7565 0.0000
vt 1.0000 0.7195 0.0000
vt 0.0000 0.7195 0.0000
vt 1.0000 0.6805 0.0000
vt 0.0000 0.6805 0.0000
vt 0.0000 0.1046 0.0000
vt 1.0000 0.1046 0.0000
vt 1.0000 0.4814 0.0000
vt 0.0000 0.4814 0.0000
vt 1.0000 0.8147 0.0000
vt 0.0000 0.8147 0.0000
vt 0.6795 1.0000 0.0000
vt 0.6365 1.0000 0.0000
vt 0.4814 1.0000 0.0000
vt 0.1046 1.0000 0.0000
vt 0.8954 1.0000 0.0000
vt 0.5186 1.0000 0.0000
vt 0.3635 1.0000 0.0000
vt 0.3205 1.0000 0.0000
vt -0.0000 9.6088 0.0000
vt 1.0000 9.6088 0.0000
vt 1.0000 0.6365 0.0000
vt 0.0000 0.6365 0.0000
vt 1.0000 0.6795 0.0000
vt 0.0000 0.6795 0.0000
vt 1.0000 0.2275 0.0000
vt 0.0000 0.2275 0.0000
vt 0.2275 0.0000 0.0000
vt 0.2275 1.0000 0.0000
vt 0.5037 0.0000 0.0000
vt 0.5037 1.0000 0.0000
vt 1.0000 0.3550 0.0000
vt 0.0000 0.3550 0.0000
vt 0.3550 0.0000 0.0000
vt 0.3550 1.0000 0.0000
vt 0.7725 0.0000 0.0000
vt 0.7725 1.0000 0.0000
vt 0.6450 0.0000 0.0000
vt 0.6450 1.0000 0.0000
vt 1.0000 0.4963 0.0000
vt 0.0000 0.4963 0.0000
vt 0.4963 0.0000 0.0000
vt 0.4963 1.0000 0.0000
# 154 texture coords

g Box004
s 2
f 1/1/1 2/2/1 3/3/1 4/4/1 
s 4
f 5/4/2 6/1/2 7/2/3 8/3/3 
s 8
f 1/4/4 4/1/4 6/5/4 5/6/4 
s 16
f 4/4/5 3/7/5 7/8/5 6/6/5 
s 32
f 9/4/6 10/1/6 11/5/6 12/6/6 
s 64
f 10/4/7 2/9/7 8/10/7 11/6/7 
s 2
f 2/2/1 10/5/1 9/6/1 3/3/1 
s 4
f 7/2/3 12/5/8 11/6/8 8/3/3 
s 16
f 3/7/5 9/1/5 12/5/5 7/8/5 
s 64
f 2/9/7 1/1/7 5/5/7 8/10/7 
s off
f 13/11/6 14/12/6 15/13/6 16/14/6 
s 4
f 14/12/1 17/15/1 18/16/1 15/13/1 
s 2
f 17/15/9 19/17/9 20/18/9 18/16/9 
s 4
f 19/17/10 21/19/11 22/20/11 20/18/10 
s 2
f 21/19/12 23/21/12 24/22/12 22/20/12 
s 4
f 23/21/13 25/23/14 26/24/14 24/22/13 
s 2
f 25/23/15 13/11/15 16/14/15 26/24/15 
s 16
f 25/23/5 23/21/5 21/19/16 19/17/16 17/15/5 14/12/5 13/11/5 
f 26/24/17 16/14/17 15/13/17 18/16/17 20/18/7 22/20/7 24/22/17 
s off
f 27/1/1 28/25/1 29/26/1 30/4/1 
f 31/4/18 32/1/18 33/25/18 34/26/18 
s 8
f 27/4/17 30/1/17 32/5/17 31/6/17 
s 16
f 30/4/4 29/27/19 33/28/19 32/6/4 
s 32
f 35/4/20 36/1/20 37/5/20 38/6/20 
s 64
f 36/4/6 39/29/6 40/30/21 37/6/6 
s off
f 41/31/22 42/32/22 43/33/22 44/34/22 
f 45/31/23 46/32/23 47/33/23 48/34/23 
s 16
f 44/35/24 43/36/4 49/37/4 50/38/25 51/39/25 52/40/4 53/41/25 54/42/4 55/43/19 56/44/24 57/45/24 58/46/19 46/47/19 45/48/4 
s 64
f 41/49/6 59/50/6 60/51/6 61/52/6 62/53/21 48/54/21 
s off
f 60/55/22 59/56/22 63/57/22 64/58/22 
f 65/55/26 66/56/26 62/57/26 61/58/26 
s 16
f 64/59/4 63/60/24 44/35/24 45/48/4 66/61/25 65/62/4 
s 64
f 60/51/6 67/63/6 68/64/6 61/52/6 
s off
f 67/65/22 60/55/22 64/58/22 69/66/22 
f 70/65/27 65/55/27 61/58/27 68/66/27 
s 16
f 69/67/19 64/59/4 65/62/4 70/68/19 
s 64
f 67/63/6 71/69/21 72/70/21 68/64/6 
s off
f 73/71/1 71/72/1 74/73/1 75/74/1 
f 76/71/28 77/72/28 72/73/28 78/74/28 
s 16
f 75/75/4 74/76/19 77/77/19 76/78/4 
s 64
f 73/79/21 79/80/6 80/81/6 78/82/21 
s off
f 79/83/1 73/71/1 75/74/1 81/84/1 
f 82/83/29 76/71/29 78/74/29 80/84/29 
s 16
f 81/85/19 75/75/4 76/78/4 82/86/19 
s 64
f 79/80/6 28/87/30 34/88/30 80/81/6 
s off
f 42/32/31 83/89/31 49/90/31 43/33/31 
f 46/32/2 58/91/2 40/92/2 47/33/2 
f 59/56/22 41/31/22 44/34/22 63/57/22 
f 66/56/32 45/31/32 48/34/32 62/57/32 
s 64
f 71/69/21 73/79/21 78/82/21 72/70/21 
s off
f 71/72/1 67/65/1 69/66/1 74/73/1 
f 77/72/33 70/65/33 68/66/33 72/73/33 
s 16
f 74/76/19 69/67/19 70/68/19 77/77/19 
s off
f 28/25/1 79/83/1 81/84/1 29/26/1 
f 33/25/34 82/83/34 80/84/34 34/26/34 
s 16
f 29/27/19 81/85/19 82/86/19 33/28/19 
s 64
f 28/87/30 27/1/30 31/5/30 34/88/30 
f 39/29/6 84/93/6 85/94/35 86/95/30 87/96/6 88/97/6 89/98/6 90/99/21 83/100/35 42/101/35 41/49/6 48/54/21 47/102/21 40/30/21 
s off
f 39/91/1 36/5/1 35/6/1 57/92/1 
f 58/91/36 38/5/36 37/6/36 40/92/36 
s 16
f 57/45/24 35/1/4 38/5/4 58/46/19 
s off
f 85/103/37 84/104/37 56/105/37 55/106/37 
f 86/107/38 85/103/38 55/106/38 54/108/38 
f 87/109/39 86/107/39 54/108/39 53/110/39 
f 88/111/40 87/109/40 53/110/40 52/112/40 
f 89/113/41 88/111/41 52/112/41 51/114/41 
f 90/115/42 89/113/42 51/114/42 50/116/42 
f 84/104/43 39/91/43 57/92/43 56/105/43 
f 83/89/44 90/115/44 50/116/44 49/90/44 
s 2
f 91/1/1 92/5/1 93/6/1 94/4/1 
s 4
f 95/4/2 96/1/2 97/5/2 98/6/2 
s 8
f 91/4/7 94/1/7 96/5/7 95/6/7 
s 16
f 94/4/19 93/1/19 97/5/19 96/6/19 
s 32
f 93/4/5 92/1/5 98/5/5 97/6/5 
s 64
f 92/4/21 91/1/21 95/5/21 98/6/21 
s 1
f 99/1/1 100/5/1 101/6/1 102/4/1 
f 103/117/45 104/118/45 105/119/46 106/120/46 
s 2
f 99/4/6 102/1/6 107/121/6 108/122/6 
s 4
f 102/4/7 101/1/7 109/5/7 110/123/7 111/124/7 105/125/17 104/126/7 107/122/47 
s 2
f 101/4/4 100/1/4 112/5/4 109/6/4 
s 4
f 100/4/5 99/1/5 108/121/5 103/127/5 106/128/5 113/129/5 114/130/5 112/6/16 
s 8
f 103/131/48 108/122/48 107/121/48 104/132/48 
s 1
f 105/119/46 111/133/49 113/134/49 106/120/46 
f 111/133/49 110/135/50 114/136/50 113/134/49 
f 110/135/50 109/5/51 112/6/52 114/136/50 
s 2
f 115/1/1 116/137/1 117/138/1 118/4/1 
s 4
f 119/4/2 120/1/2 121/137/53 122/138/53 
s 8
f 115/4/5 118/1/5 120/5/5 119/6/5 
s 16
f 118/4/6 117/139/6 121/140/6 120/6/6 
s 32
f 123/4/7 124/1/7 125/5/7 126/6/7 
s 64
f 124/4/4 127/141/19 128/142/24 125/6/4 
s 2
f 116/137/1 129/143/1 130/144/1 117/138/1 
s 4
f 121/137/53 131/143/54 132/144/54 122/138/53 
s 16
f 117/139/6 130/145/6 131/146/6 121/140/6 
s 64
f 116/147/24 115/1/4 119/5/4 122/148/4 
f 129/149/25 116/147/24 122/148/4 132/150/24 
s 2
f 129/143/1 127/151/1 133/152/1 130/144/1 
s 4
f 131/143/54 134/151/55 128/152/55 132/144/54 
s 16
f 130/145/6 133/153/6 134/154/6 131/146/6 
s 64
f 127/141/19 129/149/25 132/150/24 128/142/24 
s 2
f 127/151/1 124/5/1 123/6/1 133/152/1 
s 4
f 134/151/55 126/5/2 125/6/2 128/152/55 
s 16
f 133/153/6 123/1/6 126/5/6 134/154/6 
# 103 polygons

